<svg width="400" height="400" viewBox="0 0 400 400" fill="none" xmlns="http://www.w3.org/2000/svg">
  <rect width="400" height="400" fill="#F3F4F6"/>
  <path d="M200 140C177.909 140 160 157.909 160 180C160 202.091 177.909 220 200 220C222.091 220 240 202.091 240 180C240 157.909 222.091 140 200 140ZM200 200C188.954 200 180 191.046 180 180C180 168.954 188.954 160 200 160C211.046 160 220 168.954 220 180C220 191.046 211.046 200 200 200Z" fill="#9CA3AF"/>
  <path d="M280 100H220L210 80H190L180 100H120C109 100 100 109 100 120V280C100 291 109 300 120 300H280C291 300 300 291 300 280V120C300 109 291 100 280 100ZM280 280H120V120H193.3L203.3 100H196.7L206.7 120H280V280Z" fill="#9CA3AF"/>
  <text x="200" y="320" font-family="Arial, sans-serif" font-size="14" fill="#6B7280" text-anchor="middle">Product Image</text>
</svg>